<svg xmlns="http://www.w3.org/2000/svg" width="35" height="35" fill="none"><g fill="#1F2937" clip-path="url(#a)"><path d="M13.228 17.5a3.932 3.932 0 0 1-1.153 2.78l-5.36 5.36a3.838 3.838 0 0 1-1.033.742 3.93 3.93 0 0 1-1.75.41 3.934 3.934 0 0 1-2.781-6.715L3.73 17.5l-2.578-2.579a3.934 3.934 0 0 1 5.563-5.563l.217.216 5.144 5.143a3.935 3.935 0 0 1 1.153 2.783Z"/><path d="M13.228 17.5a3.932 3.932 0 0 1-1.153 2.78l-5.36 5.36a3.838 3.838 0 0 1-1.033.742 3.934 3.934 0 0 1-1.035-6.306l2.578-2.576-2.577-2.579a3.934 3.934 0 0 1 1.033-6.304 3.918 3.918 0 0 1 1.033.74l.217.217 5.144 5.143a3.934 3.934 0 0 1 1.153 2.783Z"/><path d="M35 17.5c0 9.113-7.416 16.528-16.531 16.528h-7.89a3.932 3.932 0 0 1-3.934-3.934 3.935 3.935 0 0 1 3.934-3.934h7.891c4.777 0 8.664-3.885 8.664-8.662 0-4.775-3.887-8.661-8.664-8.661h-7.89a3.935 3.935 0 0 1-3.923-4.23A3.931 3.931 0 0 1 10.58.972h7.891C27.586.972 35 8.386 35 17.5Z"/><path d="M6.93 9.577a3.158 3.158 0 0 1-.487-.464c.093.079.184.161.271.248l.217.216ZM6.714 25.64c-.09.09-.181.176-.28.255.15-.179.321-.34.505-.479l-.225.225Z"/><path d="M29.347 17.5c0 7.616-6.196 13.81-13.813 13.81H8.938c-.887 0-1.69-.35-2.282-.92a3.935 3.935 0 0 1 3.922-4.229h7.891c4.776 0 8.663-3.886 8.663-8.663 0-4.775-3.887-8.662-8.663-8.662h-7.89a3.935 3.935 0 0 1-3.921-4.229 3.277 3.277 0 0 1 2.282-.92h6.594c7.617.003 13.813 6.197 13.813 13.813Z"/></g><defs><clipPath id="a"><path fill="#fff" d="M0 .972h35v33.056H0z"/></clipPath></defs></svg>
